<svg xmlns="http://www.w3.org/2000/svg" viewBox="0 0 265.76 411.27"><defs><style>.cls-1{fill:#002b4c;}.cls-2{fill:#e10613;}</style></defs><g id="Capa_1" data-name="Capa 1"><path class="cls-1" d="M458.83,536.52l-13.31,0q-16.12,0-32.27,0c-.9,0-1.34-.18-1.18-1.16a6,6,0,0,0,0-1V257.13a2.94,2.94,0,0,1,1.18-.09h44.39c1.34,0,1.34,0,1.34,1.37q0,58.8,0,117.61c0,.42.15.88-.15,1.27H441.39c-.3-.43-.14-.93-.14-1.39q0-50.5,0-101a2.71,2.71,0,0,0-.12-1.41h0a10.2,10.2,0,0,0-3-.12c-2.75,0-5.5-.17-8.24.12,0,.43-.06.87-.06,1.31q0,56.22,0,112.46c0,1.18.3,1.41,1.43,1.4,9.2-.06,18.4-.05,27.59-.06.21.19.16.44.16.67v15.17a1.05,1.05,0,0,1-.09.46c-9.31,0-18.62,0-27.94,0-1,0-1.14.3-1.14,1.19q0,56.5,0,113c0,1,.27,1.25,1.25,1.22,3.35-.12,6.7.1,10.05-.12a2.68,2.68,0,0,0,.12-1.4q0-50.48,0-100.94c0-1.73-.17-1.51,1.55-1.51,5,0,10,0,15,0,.89,0,1.23.14,1.23,1.15q0,59,0,118.08C459,535.84,459.11,536.21,458.83,536.52Z" transform="translate(-288.14 -214.95)"/><path class="cls-1" d="M400.55,257.2c0,.47,0,.95,0,1.43q0,58.59,0,117.18c0,1.24-.32,1.49-1.51,1.48-5.39-.06-10.79,0-16.18,0-.34-.43-.16-.93-.16-1.39q0-50.47,0-101c0-.35,0-.71,0-1.07s-.15-.53-.5-.52c-3.55.06-7.1-.16-10.65.12h0a2.37,2.37,0,0,0-.12,1.29q0,56.22,0,112.44a2.37,2.37,0,0,0,.12,1.29,2.46,2.46,0,0,0,1.29.11c8.79,0,17.59,0,26.38,0,1.14,0,1.36.35,1.35,1.4q-.09,6.76,0,13.54c0,1-.2,1.4-1.34,1.39-8.79-.06-17.59,0-26.38,0-.43,0-.87.06-1.3.09a2,2,0,0,0-.12,1.17q0,56.42,0,112.83a1.93,1.93,0,0,0,.12,1.16c3.68.17,7.35.12,11,0a2.71,2.71,0,0,0,.12-1.41q0-50.33,0-100.65a7.67,7.67,0,0,0,0-1c-.08-.69.22-.9.89-.88,1.68,0,3.36,0,5,0H399.4c.38,0,.8-.14,1.15.15,0,.48,0,1,0,1.43q0,58.61,0,117.21c0,1.12-.22,1.46-1.42,1.45q-21.94-.06-43.89,0l-1.43,0c-.3-.39-.15-.85-.15-1.27q0-138.44,0-276.85c0-1.36,0-1.36,1.36-1.36h44.27C399.7,257.05,400.16,256.9,400.55,257.2Z" transform="translate(-288.14 -214.95)"/><path class="cls-1" d="M488.39,520.13c3.55.21,7.1,0,10.65.1.45,0,.69-.11.63-.6a3.84,3.84,0,0,1,0-.48q0-51.39,0-102.79a8.09,8.09,0,0,1,2.14-.08h14.33a3.57,3.57,0,0,1,1.3.08q0,59.26,0,118.53c0,1.6,0,1.6-1.66,1.6H472l-1.32,0c-.29-.35-.15-.77-.15-1.15q0-138.54,0-277.08c0-.8,0-1.28,1.11-1.28q22.49.06,45,0a1.81,1.81,0,0,1,.83.09q0,59.33,0,118.65c0,1.14-.18,1.54-1.46,1.52-5-.09-10-.07-15,0-1.09,0-1.36-.27-1.36-1.36q0-50.52,0-101c0-.48,0-1-.06-1.43a1,1,0,0,0-.69-.13h-9.24c-1.18,0-1.38.23-1.41,1.4v.72q0,55.82,0,111.62a2.71,2.71,0,0,0,.12,1.41,2.46,2.46,0,0,0,1.29.11q13.31,0,26.62,0c.85,0,1.16.14,1.15,1.09q-.09,7.06,0,14.14c0,.95-.29,1.08-1.14,1.08-8.87,0-17.74,0-26.62,0-.43,0-.87.06-1.3.09a2,2,0,0,0-.12,1.17q0,56.42,0,112.83A1.93,1.93,0,0,0,488.39,520.13Z" transform="translate(-288.14 -214.95)"/><path class="cls-1" d="M342.24,257.2c0,.51,0,1,0,1.55V534.93c0,1.81.24,1.55-1.61,1.56-5.35,0-10.71,0-16.07,0a2.6,2.6,0,0,1-.14-1.51q0-130-.07-260c0-5.06-.19-10.13-.22-15.19v-.84c0-1.91.26-2.16,2.15-2.16,4.12,0,8.24,0,12.35,0A24.73,24.73,0,0,1,342.24,257.2Z" transform="translate(-288.14 -214.95)"/><path class="cls-1" d="M436.29,562c.15-.56.55-.69,1.09-.69,3.95,0,7.91,0,11.86,0,1.34,0,1.64,1,.79,2.38-3.31.21-6.62,0-9.93.09a2.47,2.47,0,0,0-1.29.12l-.07,1.39a26.58,26.58,0,0,0-.16,2.68c.1.16-.41.83.3.46a11,11,0,0,1,3.48-1,5.14,5.14,0,0,1,1.66,0c2.54.39,4.79,1.27,6.26,3.55a10.32,10.32,0,0,1,1,2.76,12.74,12.74,0,0,1,0,2.62c-1.14,5.6-6.16,7-10.78,6a6.15,6.15,0,0,1-4.89-4.14c-.16-.46,0-.93-.27-1.35a7.6,7.6,0,0,1,0-2.13c1-.86,2.13-.52,2.36.7.8,4.16,4.73,6.07,8.58,4.17,1.89-.92,2.77-2.65,2.58-5.09a4.86,4.86,0,0,0-3.6-4.3c-2.63-.75-5.49-.14-6.84,2.07a2.75,2.75,0,0,1-.62.55,2.1,2.1,0,0,1-1.19,0c-1.24-.39-.45-1.45-.71-2.16.26-1,0-2,.16-2.91l.08-3.08A26.58,26.58,0,0,0,436.29,562Z" transform="translate(-288.14 -214.95)"/><path class="cls-1" d="M400.55,257.2a2.38,2.38,0,0,0-1.29-.15c-14.76,0-29.51,0-44.27,0-1.13,0-1.36.34-1.36,1.4q0,138.42,0,276.82a2.36,2.36,0,0,0,.15,1.29c-.46-.32-.27-.8-.27-1.21q0-138.54,0-277.06c0-1,.24-1.36,1.32-1.36,14.84,0,29.67,0,44.51,0C399.75,256.92,400.23,256.74,400.55,257.2Z" transform="translate(-288.14 -214.95)"/><path class="cls-1" d="M517.43,257.13c-.4,0-.8-.08-1.19-.08-14.8,0-29.59,0-44.39,0-1.13,0-1.36.34-1.36,1.4q0,138.36,0,276.7a2.7,2.7,0,0,0,.15,1.41c-.52-.44-.27-1-.27-1.57q0-137.33,0-274.64c0-.8,0-1.6,0-2.4s.28-1.09,1-1a3.85,3.85,0,0,0,.48,0h44.15C516.51,256.92,517,256.76,517.43,257.13Z" transform="translate(-288.14 -214.95)"/><path class="cls-1" d="M398.29,571.86c0,2.91,0,5.83,0,8.74,0,.52.12,1.12-.44,1.5a1.62,1.62,0,0,1-1.39.16c-.53-.18-.4-.8-.4-1.26q0-7.18,0-14.38c0-.34.19-.83-.15-1s-.6.38-.91.59c-.78.54-1.14,1.74-2.36,1.59-.35,0-.86.34-1-.24a1.33,1.33,0,0,1,.26-1.53c1-.9,1.88-1.85,2.81-2.79A5.2,5.2,0,0,0,395.7,562a1.48,1.48,0,0,1,1.84-.67c.78.19.73.86.74,1.43C398.3,565.79,398.29,568.82,398.29,571.86Z" transform="translate(-288.14 -214.95)"/><path class="cls-1" d="M458.83,536.52a2.7,2.7,0,0,0,.15-1.41q0-58.67,0-117.35c0-1.17-.23-1.54-1.48-1.52-5,.08-10,.07-15,0-1.06,0-1.33.26-1.32,1.32q0,39.07,0,78.15,0,11.56,0,23.13c0,.43.14.88-.12,1.28V417.78c0-1.63,0-1.63,1.6-1.63,5,0,10.08,0,15.12,0,.95,0,1.31.2,1.31,1.24q0,59,0,118.06C459.11,535.81,459.26,536.24,458.83,536.52Z" transform="translate(-288.14 -214.95)"/><path class="cls-1" d="M458.83,377.29a2.72,2.72,0,0,0,.15-1.41q0-58.68,0-117.35c0-1.19-.25-1.52-1.49-1.52-14.71.05-29.42,0-44.14,0-.43,0-.87.05-1.3.08.37-.35.83-.21,1.26-.21,14.79,0,29.58,0,44.37,0,1.05,0,1.43.22,1.43,1.37q0,58.9,0,117.82C459.11,376.49,459.29,377,458.83,377.29Z" transform="translate(-288.14 -214.95)"/><path class="cls-1" d="M488.39,388.49c-.25-.37-.12-.78-.12-1.16q0-56.31,0-112.63c0-1.26.37-1.5,1.53-1.46,2.92.08,5.83,0,8.75,0,.36,0,.79-.23,1.09.19-3.11,0-6.23,0-9.35,0-1.74,0-1.86.11-1.86,1.81V388.49Z" transform="translate(-288.14 -214.95)"/><path class="cls-1" d="M400.55,416.43a2.38,2.38,0,0,0-1.29-.15c-5.08,0-10.15,0-15.23,0-1.09,0-1.29.31-1.29,1.33q0,50.63,0,101.26c0,.44.23.94-.19,1.33V417.83c0-1.68,0-1.68,1.67-1.68,5,0,10,0,15,0C399.67,416.16,400.19,416,400.55,416.43Z" transform="translate(-288.14 -214.95)"/><path class="cls-1" d="M371.53,520.13c-.25-.36-.12-.77-.12-1.16q0-56.42,0-112.84c0-.38-.13-.8.12-1.16Z" transform="translate(-288.14 -214.95)"/><path class="cls-1" d="M488.39,520.13c-.25-.36-.12-.77-.12-1.16q0-56.42,0-112.84c0-.38-.13-.8.12-1.16Z" transform="translate(-288.14 -214.95)"/><path class="cls-1" d="M371.53,273.47c.31-.41.74-.19,1.1-.19,3,0,5.92.05,8.88,0,1.13,0,1.28.36,1.28,1.35q0,50.58,0,101.16c0,.51.06,1,.09,1.55-.55-.44-.28-1.05-.28-1.57q0-50.3,0-100.58c0-1.67,0-1.67-1.67-1.67Z" transform="translate(-288.14 -214.95)"/><path class="cls-1" d="M371.53,388.49c-.25-.37-.12-.78-.12-1.16q0-56.35,0-112.69a2,2,0,0,1,.12-1.17Z" transform="translate(-288.14 -214.95)"/><path class="cls-1" d="M441.11,273.47a2.58,2.58,0,0,1,.12,1.4q0,50.38,0,100.77a3.43,3.43,0,0,0,.14,1.65c-.5-.4-.27-1-.27-1.45Q441.11,324.65,441.11,273.47Z" transform="translate(-288.14 -214.95)"/><path class="cls-1" d="M517.43,416.36c-3.5,0-7-.07-10.5-.08-2.42,0-4.84.05-7.27.08.29-.3.67-.21,1-.21h15.74C516.76,416.15,517.14,416.06,517.43,416.36Z" transform="translate(-288.14 -214.95)"/><path class="cls-1" d="M458.9,404.88c0-4,.08-7.94.07-11.91a19,19,0,0,0-.14-4.39c.35.2.28.54.28.85v14.68A.9.9,0,0,1,458.9,404.88Z" transform="translate(-288.14 -214.95)"/><path class="cls-1" d="M429.9,273.47c.12-.32.39-.2.6-.2h10c.22,0,.49-.1.62.2Z" transform="translate(-288.14 -214.95)"/><path class="cls-1" d="M437.81,563.87c.3-.4.72-.19,1.08-.19,3.38,0,6.76,0,10.14,0-.37.35-.83.2-1.24.21Z" transform="translate(-288.14 -214.95)"/><path class="cls-1" d="M435.29,562a10.48,10.48,0,0,1-.16,2.68A7.81,7.81,0,0,1,435.29,562Z" transform="translate(-288.14 -214.95)"/><path class="cls-1" d="M435.6,572.79h1.19A.91.91,0,0,1,435.6,572.79Z" transform="translate(-288.14 -214.95)"/><path class="cls-1" d="M433.74,574.91a5.51,5.51,0,0,0-3.33-4.17,5.58,5.58,0,0,0,2.36-3,7,7,0,0,0,0-2.14,5.29,5.29,0,0,0-3.32-3.88,13.7,13.7,0,0,0-3.21-.73,4.27,4.27,0,0,0-1.67,0c-.27,0-.55,0-.82.08-3.58.51-5.3,1.66-5.72,4.77a5.14,5.14,0,0,0,0,1.66,5,5,0,0,0,2,3.23,5.08,5.08,0,0,0-2.95,4,10.94,10.94,0,0,0,0,2.62,5.75,5.75,0,0,0,2,3.6c2.17,1.63,4.63,1.82,7.16,1.67,3-.18,6.51-1.16,7.47-5.27A9.48,9.48,0,0,0,433.74,574.91Zm-11.56-11a6.9,6.9,0,0,1,3.27-.56,6.66,6.66,0,0,1,3.15.56,2.86,2.86,0,0,1,1.72,2.77,2.46,2.46,0,0,1-1.8,2.3,7.8,7.8,0,0,1-6.38,0,2.34,2.34,0,0,1-1.67-2.24A2.88,2.88,0,0,1,422.18,563.92Zm7.2,15.32a8.78,8.78,0,0,1-7.85.09,3.48,3.48,0,0,1-2-3.83,3.34,3.34,0,0,1,2.57-3,10.11,10.11,0,0,1,3.42-.47,9.42,9.42,0,0,1,3.41.51,3.29,3.29,0,0,1,2.38,3A3.45,3.45,0,0,1,429.38,579.24Z" transform="translate(-288.14 -214.95)"/><path class="cls-1" d="M415.91,567.72c-.26-.45,0-1-.17-1.44-1.07-4.65-5-6-8.81-5.45-3.62.51-6.19,2.83-5.93,7.77.14,2.7,2.69,6,5.81,6.13.41.13.86-.05,1.27.15h.59c.47-.25,1,0,1.48-.18a11.4,11.4,0,0,0,3.06-1.25c.53,4.09-.77,6.06-3.74,6.73a5.12,5.12,0,0,1-2.27,0c-2.25-.19-3.66-1.6-4-4.22-.1-.87-.44-1.22-1.21-1.27s-1.16.57-1.21,1.34c.23.39,0,.85.17,1.24a6.29,6.29,0,0,0,6.06,5.34,10.94,10.94,0,0,0,2.62,0,6.88,6.88,0,0,0,6.07-5.33c.17-.47-.1-1,.17-1.44Zm-7.45,4.78c-3,0-5-1.91-5-4.71s2-4.75,5-4.75,5,1.87,5.05,4.73S411.48,572.49,408.46,572.5Z" transform="translate(-288.14 -214.95)"/></g><g id="Capa_4" data-name="Capa 4"><path class="cls-2" d="M495.3,594.07a13.25,13.25,0,0,0-7.13,2.81,14.38,14.38,0,0,0-5.7,8.69,7.72,7.72,0,0,0-.1,1.18c-.23.39,0,.84-.17,1.24v1.45c.16.39-.08.84.17,1.22a12.67,12.67,0,0,0,3.81,8,14.1,14.1,0,0,0,9.85,4.68,7.36,7.36,0,0,0,2.92,0,14.45,14.45,0,0,0,8.47-3.58,11.63,11.63,0,0,0,.95-.91c1.45-1.42,1.4-1.36,3-.06.68.56.47.83,0,1.29A18.31,18.31,0,0,1,500.62,626c-.09,0-.16.15-.23.22h-6.24c-1.18-.6-2.51-.71-3.74-1.22a17.57,17.57,0,0,1-11.08-18.67,15.76,15.76,0,0,1,3.33-8.05,18,18,0,0,1,12.46-7.13c.46-.17,1,.1,1.44-.18h1.89c.46.28,1,0,1.45.18a19.4,19.4,0,0,1,9.11,3.93,20.19,20.19,0,0,1,1.67,1.53c.43.45,1.31.89,1.1,1.42-.28.73-1.1,1.22-1.79,1.69-.44.3-.59-.11-.76-.31a15.53,15.53,0,0,0-6.62-4.63,9.31,9.31,0,0,0-2.92-.7c-.37-.25-.83,0-1.22-.19h-1.93C496.14,594.07,495.69,593.84,495.3,594.07Z" transform="translate(-288.14 -214.95)"/><path class="cls-2" d="M373.46,609.65v-1.88c.28-.45,0-1,.18-1.45A16.73,16.73,0,0,1,379,595.91a18.28,18.28,0,0,1,10.29-4.75c.47-.19,1,.08,1.46-.18h2.06c.4.21.85,0,1.26.15,5.5,1.05,9.16,3.14,12.16,7-.87.42-1.34,1.75-2.22,1.62-.69-.1-1.17-1.27-1.87-1.8-2.62-2-5.39-3.69-8.85-3.87a17,17,0,0,0-2.57-.14c-.39.18-.84-.08-1.21.18a13.45,13.45,0,0,0-7.7,3.29,14.45,14.45,0,0,0-5.13,8.42,15.09,15.09,0,0,0-.14,1.65,6.29,6.29,0,0,0,0,2.52c.26,4.68,2.61,8.16,6.32,10.8a13,13,0,0,0,7.54,2.6,7.32,7.32,0,0,0,2.76,0,14.08,14.08,0,0,0,8.07-3.24,5.91,5.91,0,0,0,2.27-2.17c.19-.43.6-.5,1-.13l.09.08c1.8,1.43,1.79,1.42.14,3.1a18.4,18.4,0,0,1-9.1,4.94c-.21,0-.5,0-.58.28h-6.72c-1.66-.72-3.49-1-5.11-1.87-5.28-2.92-8.63-7.2-9.57-13.24C373.44,610.64,373.72,610.11,373.46,609.65Z" transform="translate(-288.14 -214.95)"/><path class="cls-2" d="M460.12,623.36c3.22.17,8.23-3,9.12-6.82a19.49,19.49,0,0,0,.68-2.52c.25-.38,0-.83.19-1.22q0-10.18.05-20.37c0-.39-.27-1.06.23-1.16a4.61,4.61,0,0,1,2.47.07c.31.13.12.67.12,1q0,10.42,0,20.85c-.21.4,0,.85-.17,1.26a14.77,14.77,0,0,1-3.81,8,13.52,13.52,0,0,1-6.58,3.52c-.18,0-.4,0-.46.27h-6.48a29.4,29.4,0,0,1-4.28-1.67,12.81,12.81,0,0,1-6-8,17.66,17.66,0,0,1-.38-2.31c-.15-.48.08-1-.16-1.48,0-6.79.06-13.58,0-20.37,0-1.3.63-1.17,1.44-1.17s1.46-.14,1.44,1.16c-.07,7-.17,14,.06,21a10,10,0,0,0,9.77,10A6.82,6.82,0,0,0,460.12,623.36Z" transform="translate(-288.14 -214.95)"/><path class="cls-2" d="M316.59,591.21h2.61a1.21,1.21,0,0,1,.13.81v21a1.83,1.83,0,0,1-.05.47,15.56,15.56,0,0,1-3.12,8,12.86,12.86,0,0,1-7.52,4.46c-.18,0-.4,0-.46.25H301.7a6.89,6.89,0,0,0-2-.76,12,12,0,0,1-7.34-6.84,16.26,16.26,0,0,1-1.23-7.07q.08-9.52,0-19c0-1.14.34-1.45,1.38-1.31a9.68,9.68,0,0,0,1.32,0,3.54,3.54,0,0,1,.08,1.3c0,6.41,0,12.83,0,19.25a2.58,2.58,0,0,0,.11,1.29,10.11,10.11,0,0,0,9.8,10.31,6.92,6.92,0,0,0,2.72,0,10.26,10.26,0,0,0,9.1-6.77,10,10,0,0,0,.71-3.28,2.58,2.58,0,0,0,.11-1.29q0-9.76,0-19.51A2.37,2.37,0,0,1,316.59,591.21Z" transform="translate(-288.14 -214.95)"/><path class="cls-2" d="M411.33,626l0,.26h-3.12c0-.26-.14-.57.22-.74C409.39,625.78,410.44,625.39,411.33,626Z" transform="translate(-288.14 -214.95)"/><path class="cls-2" d="M544.3,626.22l0-.27a4.63,4.63,0,0,1,2.87-.23c.23.1.19.31.21.5Z" transform="translate(-288.14 -214.95)"/><path class="cls-2" d="M517,626a.19.19,0,0,1,0,.19h-3.12l0-.27A3.08,3.08,0,0,1,517,626Z" transform="translate(-288.14 -214.95)"/><path class="cls-2" d="M330.19,625.93l.06.29h-2.88l0-.26A2.91,2.91,0,0,1,330.19,625.93Z" transform="translate(-288.14 -214.95)"/><path class="cls-2" d="M364.33,626.22l0-.26a2.89,2.89,0,0,1,2.78,0l.07.29Z" transform="translate(-288.14 -214.95)"/><path class="cls-2" d="M438.72,626.22a.26.26,0,0,1,0-.21,2.79,2.79,0,0,1,2.86-.06l0,.27Z" transform="translate(-288.14 -214.95)"/><path class="cls-2" d="M354.25,626.22a.76.76,0,0,1,0-.21,1.47,1.47,0,0,1,1.92,0l0,.26Z" transform="translate(-288.14 -214.95)"/><path class="cls-2" d="M356.14,626l-1.92,0L335.8,603.49c-1.79-2.18-3.57-4.36-5.61-6.47v28.91l-2.79,0q0-17,0-33.91c0-.28-.18-.8.24-.79.66,0,1.39-.38,2,.36,1.6,2,3.27,4,4.9,6q4.56,5.58,9.09,11.17l8.88,10.88c.19.23.28.67.66.54s.19-.56.19-.85c0-8.94,0-17.89,0-26.84,0-.41-.31-1.1.31-1.22a6.25,6.25,0,0,1,2.36,0c.33.06.15.64.15,1q0,9.83,0,19.65Z" transform="translate(-288.14 -214.95)"/><path class="cls-2" d="M367.14,625.93l-2.78,0q0-17-.05-33.92c0-.69.21-.92.88-.84a5.26,5.26,0,0,0,1.19,0c.66-.07.8.21.8.82Q367.14,609,367.14,625.93Z" transform="translate(-288.14 -214.95)"/><path class="cls-2" d="M542.67,615.62q-3.09-6.86-6.15-13.74c-1.49-3.33-3-6.65-4.48-10-.41-1-1.14-.59-1.79-.67s-.72.18-.94.7q-2.22,5.12-4.58,10.16c-1.8,3.82-3.49,7.69-5.26,11.52-1.9,4.11-3.63,8.29-5.61,12.36L517,626c1.32-2.93,2.67-5.86,4-8.81a1.21,1.21,0,0,1,1.3-.89q8.46,0,16.9,0a1.23,1.23,0,0,1,1.32.88c1.27,2.93,2.58,5.83,3.88,8.74,1-.07,1.95.32,2.87-.23Q544.95,620.67,542.67,615.62Zm-4.45-1.86c-5.19,0-10.38,0-15.74,0,2.76-6.26,5.44-12.33,8.2-18.57,2.7,6.07,5.3,11.93,7.91,17.78C538.79,613.41,539,613.76,538.22,613.76Z" transform="translate(-288.14 -214.95)"/><path class="cls-2" d="M436.59,614.89c-3.43-7.62-6.89-15.24-10.3-22.88-.25-.55-.42-.84-1.07-.82s-1.42-.05-1.77.8c-1.4,3.4-3,6.71-4.53,10-2.09,4.54-4.05,9.14-6.08,13.7-1.45,3.26-2.92,6.5-4.38,9.74,0,.55.38.5.73.5l2.14,0c1.28-2.88,2.58-5.74,3.81-8.63a1.35,1.35,0,0,1,1.48-1q8.33.06,16.66,0a1.36,1.36,0,0,1,1.48,1c1.28,2.91,2.62,5.79,3.93,8.69l2.86-.06Q439.07,620.42,436.59,614.89Zm-19.83-1.19,8.16-18.51,8.27,18.51Z" transform="translate(-288.14 -214.95)"/></g><g id="Capa_3" data-name="Capa 3"><polygon class="cls-1" points="0 0 0 363.1 94.9 363.1 94.9 349.4 13.71 349.4 13.71 13.63 252.07 13.63 252.07 349.4 170.46 349.4 170.46 363.1 265.76 363.1 265.76 0 0 0"/></g></svg>