<svg xmlns="http://www.w3.org/2000/svg" viewBox="0 0 488.74 459.34"><defs><style>.cls-1{isolation:isolate;}.cls-2{fill:#a8dadc;}.cls-20,.cls-3{fill:#457b9d;}.cls-3{opacity:0.55;}.cls-4{fill:#f1faee;}.cls-5{fill:#ffb703;}.cls-6{fill:#023047;}.cls-7{fill:#219ebc;}.cls-8{fill:#e63946;}.cls-9{fill:#00668e;}.cls-10{fill:#0582c1;}.cls-11{fill:#05556d;}.cls-12{fill:#f98d3d;}.cls-13{fill:#ed701b;}.cls-14{fill:none;}.cls-15{fill:#efaa3a;}.cls-16{fill:#f98d2b;opacity:0.29;mix-blend-mode:multiply;}.cls-17{fill:#79c9e8;}.cls-18{fill:#49b4d6;}.cls-19{fill:#7f1a00;}.cls-21{fill:#fb8500;}</style></defs><g class="cls-1"><g id="OBJECTS"><path class="cls-2" d="M480,458.51a14.62,14.62,0,0,0,14.4-14.61c.61-40.43,3.76-100.06-70.07-116.55C364.6,314,400,204.52,239.12,211.6,123.62,216.67,154.3,317.06,64.5,325.42,4.74,331,4.23,408.92,6.52,444.63A14.6,14.6,0,0,0,20.9,458.51Z" transform="translate(-5.87 0.71)"/><path class="cls-3" d="M424.34,327.35C364.6,314,400,204.52,239.12,211.6c-27.47,1.2-46.66,7.81-61.18,17.28,4.89-.66,10.08-1.13,15.62-1.37C354.46,220.44,319,329.92,378.78,343.27c73,16.31,70.73,74.85,70.09,115.24H480a14.62,14.62,0,0,0,14.4-14.61C495,403.47,498.17,343.84,424.34,327.35Z" transform="translate(-5.87 0.71)"/><rect class="cls-2" x="162.64" width="2.54" height="191.13"/><rect class="cls-2" x="344.79" width="2.54" height="220.49"/><path class="cls-4" d="M353,206.93,164,184.19a14.82,14.82,0,0,0-16.32,13.32l-14.1,124.56a15.07,15.07,0,0,0,12.91,16.83l188.91,22.74a14.82,14.82,0,0,0,16.32-13.31l14.1-124.57A15.08,15.08,0,0,0,353,206.93Z" transform="translate(-5.87 0.71)"/><path class="cls-5" d="M364.47,236.09l1.39-12.33A15.08,15.08,0,0,0,353,206.93L164,184.19a14.82,14.82,0,0,0-16.32,13.32l-1.4,12.33Z" transform="translate(-5.87 0.71)"/><path class="cls-6" d="M168.59,201.4A4,4,0,0,1,164.2,205a4,4,0,0,1-3.47-4.52,4,4,0,0,1,4.39-3.58A4.05,4.05,0,0,1,168.59,201.4Z" transform="translate(-5.87 0.71)"/><path class="cls-7" d="M187.54,203.69a4,4,0,0,1-4.39,3.57,4,4,0,0,1-3.47-4.52,4,4,0,0,1,4.39-3.58A4.06,4.06,0,0,1,187.54,203.69Z" transform="translate(-5.87 0.71)"/><path class="cls-8" d="M207.18,206.05a4,4,0,0,1-4.38,3.58,4.05,4.05,0,0,1-3.47-4.53,4,4,0,0,1,4.38-3.57A4,4,0,0,1,207.18,206.05Z" transform="translate(-5.87 0.71)"/><path class="cls-9" d="M108.42,347.48a108.24,108.24,0,0,0-2.13,23.59c.38,10.68-.85,80.88-.85,80.88h8.32s11.83-55,12.28-59.32,6.39-47.76,6.39-47.76Z" transform="translate(-5.87 0.71)"/><path class="cls-10" d="M114,344.28s1.91,15,5.17,25.65,19.24,82,19.24,82h8.31s-1.53-55-2.1-59.32-4.79-47.76-4.79-47.76Z" transform="translate(-5.87 0.71)"/><path class="cls-10" d="M139,451.93v6h15.83a.94.94,0,0,0,.5-1.72c-2.32-1.59-6-3.78-9.47-4.27Z" transform="translate(-5.87 0.71)"/><path class="cls-10" d="M105.87,451.93v6h15.82a1,1,0,0,0,.51-1.72c-2.32-1.59-6-3.78-9.47-4.27Z" transform="translate(-5.87 0.71)"/><path class="cls-9" d="M134.42,274.51s5.45-8.52-.8-9.36c-4.8-.64-6.78.84-6.78.84s-5.52-.63-8.55,2.07c-2.07,1.86-9.67,16.22,2.63,21.42s9.67-8.11,9.67-8.11Z" transform="translate(-5.87 0.71)"/><path class="cls-11" d="M133.62,265.15c-4.8-.64-6.78.84-6.78.84s-5.52-.63-8.55,2.07c-2.07,1.86-9.67,16.22,2.63,21.42,5.78,2.44,8.26.8,9.27-1.63-11.67,3.38-12.93-11.12-11-15.25s6.65-2.26,6.65-2.26c1.83-4.76,7.81-4.24,10.28-3.87A3.36,3.36,0,0,0,133.62,265.15Z" transform="translate(-5.87 0.71)"/><path class="cls-12" d="M126.76,278.67s-1.61-1.67-2.82,0-.4,5.4,1.61,5.61c0,0-.6,5.41-4.63,5.2v4.36h9.47v-3.32S136.24,288,136,283a28.06,28.06,0,0,0-1.62-8.52S131.2,278.25,126.76,278.67Z" transform="translate(-5.87 0.71)"/><path class="cls-13" d="M128.21,291.92c.94.4.78,1,.82,1.92h1.36v-3.32s-2.29.75-5.66-1.23A15.1,15.1,0,0,0,128.21,291.92Z" transform="translate(-5.87 0.71)"/><path class="cls-12" d="M130.15,270.71s-4.91-2-5.48-.5c-.38,1,.58,1.84,1.89,2.7l-1.16.2a.32.32,0,0,0-.15.55c.33.27,1.22.45,3.07.51Z" transform="translate(-5.87 0.71)"/><polygon class="cls-14" points="95.07 326.35 101.65 348.22 101.53 347.11 101.65 348.22 103.87 316.37 95.07 326.35"/><path class="cls-8" d="M165.23,283.4c-9.37-7.16-34.95-12.88-34.95-12.88l-2.11,4s23.22,9.28,21.69,10.66c-.9.82-12.25,6.18-16.09,8a5.83,5.83,0,0,1-2.64.56l-11.76-.07s-8.48-1-15.16,6.87c-6,7.08-16.1,23.47-16.1,23.47l17.08,25.91,1.89,2.86,0,0,0,.24,1.68.17c5.5.52,23.09,2,32.41-.08l.26-.06-.44-42.5A162.09,162.09,0,0,0,165.5,286,1.81,1.81,0,0,0,165.23,283.4Zm-57.32,58-1.67-3.75-5.31-12,8.81-10.18-1.58,22.33Z" transform="translate(-5.87 0.71)"/><polygon class="cls-15" points="100.37 338.3 102.04 342.06 101.23 353.39 101.22 353.43 99.32 350.56 100.37 338.3"/><path class="cls-16" d="M137,308.93c-1.58,1.19-1.18,11.7-1.57,18.27-.65,11-1.29,20.53-.82,26.67a47.81,47.81,0,0,0,6.55-.85l.26-.06-.44-42.5A162.09,162.09,0,0,0,165.5,286a1.81,1.81,0,0,0-.27-2.6A212.47,212.47,0,0,1,137,308.93Z" transform="translate(-5.87 0.71)"/><path class="cls-9" d="M144.57,392.63c-.41-3.13-2.72-26.61-4-39.44l-6,.68s8.72,73.9,9.29,98.08h2.76S145.14,397,144.57,392.63Z" transform="translate(-5.87 0.71)"/><path class="cls-17" d="M82.25,431.6s-2.56-2.47-.84-11.83,6.08-18.35,3.94-28.51-18.93-35.77-19-37.47-5.18,29.79,3.5,42.2,9.72,16.71,9.34,23.24.09,11.78,1,13.29Z" transform="translate(-5.87 0.71)"/><path class="cls-18" d="M80.66,412.77c-1,4.18-1.62,14.65,0,17.16.16.23.37.1.64-.34-.49-1.73-.81-4.76.12-9.82,1.72-9.36,6.08-18.35,3.94-28.51s-18.93-35.77-19-37.47c0,0,2.53,21.33,11,36C83.51,400.33,81.67,408.59,80.66,412.77Z" transform="translate(-5.87 0.71)"/><path class="cls-17" d="M85.31,431s-4.93-12.69,3.43-23.69,21.72-25.1,22-30.69c0,0,3.44,26.54-7.44,34.06s-18.5,8.71-16.62,20.27Z" transform="translate(-5.87 0.71)"/><path class="cls-18" d="M97.05,405.29c-12.13,9.1-13.12,19.59-11.24,24.45a1.26,1.26,0,0,0,.79.74c-1.62-11.16,5.94-12.43,16.68-19.85s7.44-34.06,7.44-34.06S109.18,396.19,97.05,405.29Z" transform="translate(-5.87 0.71)"/><path class="cls-17" d="M77.2,431.24a45.82,45.82,0,0,0,.74-14c-.84-7.26-8.19-11.34-15.06-19-3.54-3.94-4.58-24.8-2.39-26.74,0,0-12.13,15.16-10.26,26.26s21.66,18.3,23.49,23.67a30.66,30.66,0,0,1,1.68,9.86Z" transform="translate(-5.87 0.71)"/><path class="cls-18" d="M56.39,377.48c-4,11.19.1,24.75,13.42,33.17,9.8,6.2,6.68,19.09,6.68,19.09l1.6-5.09a41.28,41.28,0,0,0-.15-7.39c-.84-7.26-8.19-11.34-15.06-19-3.41-3.8-4.5-23.33-2.61-26.45A63.72,63.72,0,0,0,56.39,377.48Z" transform="translate(-5.87 0.71)"/><path class="cls-18" d="M60.27,371.8l.22-.29A1.16,1.16,0,0,0,60.27,371.8Z" transform="translate(-5.87 0.71)"/><path class="cls-17" d="M87.85,430.4s2.84-10.88,9.87-12.34,15.1-12.18,15.54-14.28C113.26,403.78,112.07,424,87.85,430.4Z" transform="translate(-5.87 0.71)"/><path class="cls-18" d="M97.32,421.65c-4.31,2.22-6.1,5.21-6.74,7.92,21.57-7.15,22.68-25.79,22.68-25.79a8.18,8.18,0,0,1-1.1,2.12C110.05,409.73,104.93,417.73,97.32,421.65Z" transform="translate(-5.87 0.71)"/><path class="cls-8" d="M103.06,426.39H66.29l4.37,28.32a4.33,4.33,0,0,0,4.23,3.73H94.46a4.32,4.32,0,0,0,4.23-3.73Z" transform="translate(-5.87 0.71)"/><polygon class="cls-19" points="96.47 431.78 97.19 427.1 60.42 427.1 61.15 431.78 96.47 431.78"/><path class="cls-19" d="M94.15,426.39l-4.36,28.32a4.33,4.33,0,0,1-4.24,3.73h8.91a4.32,4.32,0,0,0,4.23-3.73l4.37-28.32Z" transform="translate(-5.87 0.71)"/><path class="cls-8" d="M467.16,455H414.23l8.1-20.24h0l3.25-8.17.9-2.24,1.46-3.64.3-.74,3.26-8.17.59-1.48,5.77-14.45a3,3,0,0,1,5.66,0l5.77,14.45.6,1.48,3.26,8.17.3.74,1.46,3.64.9,2.24,3.25,8.17h0Z" transform="translate(-5.87 0.71)"/><polygon class="cls-16" points="411.83 447.02 408.37 455.69 461.3 455.69 457.83 447.02 411.83 447.02"/><rect class="cls-7" x="404.13" y="450.51" width="60.62" height="8.84"/><rect class="cls-20" x="451.66" y="450.51" width="13.1" height="8.84"/><path class="cls-19" d="M465.07,449.8h-7.48l-6-15v0l-3.25-8.16-.9-2.24L446,420.7l-.3-.75-3.26-8.16-.59-1.49L437,398.14l.9-2.28a3,3,0,0,1,5.66,0l5.77,14.44.6,1.49,3.26,8.16.3.75,1.46,3.64.9,2.24,3.25,8.16v0Z" transform="translate(-5.87 0.71)"/><polygon class="cls-5" points="447.28 420.66 422.37 420.66 425.63 412.49 444.02 412.49 447.28 420.66"/><polygon class="cls-5" points="453.19 435.45 453.19 435.46 416.46 435.46 416.46 435.45 419.71 427.28 449.94 427.28 453.19 435.45"/><polygon class="cls-21" points="447.28 420.66 439.79 420.66 436.54 412.49 444.02 412.49 447.28 420.66"/><polygon class="cls-21" points="453.19 435.45 453.19 435.46 445.71 435.46 445.71 435.45 442.45 427.28 449.94 427.28 453.19 435.45"/></g></g></svg>